Patient4_TMGait_0pt3_01_left_26_EMG.mot
version=1
nRows=20
nColumns=33
inDegrees=no
endheader
time	1LAddLong	2LGlutMax	3LGlutMed	4LIliopsoas	5LSemiMemb	6LBicFemLong	7LRecFem	8LVastMed	9LVastLat	10LGasMed	11LTibAnt	12lTibPost	13LPeroneusLong	14LSol	15LExtDigLong	16LFlexDigLong	17RAddLong	18RGlutMax	19RGlutMed	20RIliopsoas	21RSemiMemb	22RBicFemLong	23RRecFem	24RVastMed	25RVastLat	26RGasMed	27RTibAnt	28RTibPost	29RPeroneusLong	30RSol	31RExtDigLong	32RFlexDigLong
50.913	0.007019	-0.081177	0.035095	-0.00473	-0.005646	0.074005	0.037384	0.018616	-0.004883	0.016327	-0.14465	-0.001678	0.032349	-0.16663	-0.34149	-0.009613	0.037384	-0.000153	-0.097809	-0.0177	0.001984	-0.16296	0.080566	-0.21255	-0.15717	-0.013275	0.036011	-0.001373	0.23468	-0.015411	-0.002289	-0.001831
50.914	-0.000763	-0.089874	0.037231	0.003204	-0.012512	0.05722	0.00412	0.012512	0.014038	0.01297	-0.16083	-0.00061	0.032654	-0.11688	-0.32089	-0.001526	0.006866	0.003662	0.36346	-0.024261	-0.083618	0.017548	0.050659	-0.22232	-0.18814	-0.010834	0.063629	-0.00824	-0.55801	-0.066528	-0.003357	-0.009613
50.915	0.011292	-0.1033	0.044708	0.025024	-0.014496	0.02655	0.014191	0.007172	0.022736	0.010376	-0.13077	0.000153	0.025024	-0.021515	-0.16007	0.008087	-0.005188	-0.013885	0.003357	0.032959	-0.000458	0.019531	-0.088654	0.051575	-0.14893	-0.011139	0.13458	-0.014496	-1.0756	-0.11475	-0.001221	-0.009155
50.916	0.006714	-0.10223	0.032196	0.043488	-0.013733	0.008698	0.004883	0.011292	0.025635	0.003967	-0.050507	0.004883	0.003967	-0.001678	0.019684	0.006561	0.042114	0.045319	0.76187	0.007324	0.068207	-0.035706	0.005493	0.053101	-0.095978	-0.009613	0.10223	-0.015106	-0.79605	-0.15595	-0.006561	-0.013885
50.917	0.010071	-0.13214	0.028839	0.043335	-0.007935	0.008698	0.014954	0.011902	0.013733	0.010071	0.009918	-0.001984	0.00824	-0.006104	0.046387	0.010376	0.055389	0.004425	-0.097198	0.007477	-0.095367	-0.10437	-0.018463	0.012512	0.058594	0.010223	-0.056763	-0.034637	0.90118	-0.16312	-0.001831	-0.013123
50.918	0.001373	-0.098877	0.016632	0.015106	-0.00824	0.053558	0.038605	0.015717	0.023041	-0.007629	0.028687	0.002899	0.002594	-0.018158	0.022888	0.017395	0.032806	0.066681	-0.96069	-0.050354	-0.52872	-0.11704	-0.075989	0.039673	0.20584	0.011902	-0.052643	-0.041046	0.29007	-0.040894	0	-0.010376
50.919	0.009155	-0.10651	0.039368	-0.006866	-0.008392	0.033569	0.022278	0.00885	0.026245	-0.003815	-0.035095	0.005188	0.005341	-0.04715	0.059204	0.016022	0.010834	0.14572	-0.95612	-0.059814	-0.66116	-0.087585	-0.018005	0.04776	0.21881	0.03418	-0.063477	-0.034332	-0.3566	0.068054	-0.00824	-0.003357
50.92	0.006104	-0.079803	0.031128	-0.017242	-0.001068	-0.008698	0.006409	0.010529	0.024414	0.007324	-0.039368	0.005035	-0.001526	-0.071869	0.35339	0.011902	-0.001526	0.15595	-0.3569	-0.010529	-0.30334	-0.083466	-0.016174	-0.19943	0.20996	0.052795	-0.005035	-0.027161	-0.68649	0.007324	-0.003357	-0.007172
50.921	0.009003	-0.067139	0.016479	-0.003204	-0.007172	0.009918	0.021362	0.007935	0.031281	0.017242	0.033112	0.008545	-0.033417	-0.06134	0.27344	0.016174	-0.057983	0.14328	0.17807	0.024719	0.53558	-0.036926	-0.061188	-0.45944	0.28	0.035706	0.048218	-0.005798	-0.811	-0.22964	-0.00473	-0.014496
50.922	0.010223	-0.076752	0.020294	0.011139	-0.017853	0.008545	0.020142	0.014954	0.009766	0.00946	0.050964	0.01236	-0.031738	-0.053711	-0.47882	0.004425	-0.046234	0.19943	0.21133	0.001526	0.54657	-0.054016	-0.061035	-0.54306	0.39703	0.028381	0.014343	-0.016174	-0.38208	-0.78491	-0.006561	-0.018768
50.923	0.011597	-0.086517	0.019531	0.021667	-0.032501	0.00351	0.018158	0.011902	0.004883	-0.00885	0.04837	0.009155	-0.015564	-0.039825	-0.23651	0.026398	-0.029755	0.097504	0.53818	0.035553	0.28381	-0.19363	0.027313	-0.4689	0.28595	0.007629	-0.048218	-0.13138	-0.11887	-0.92636	-0.00351	-0.021057
50.924	0	-0.10468	-0.018616	0.008545	-0.02243	0.005341	0.010071	0.014191	0.012665	-0.024109	0.065002	0.011597	0.001068	-0.026855	-0.14358	0.016327	0.003967	0.097809	-0.73105	0.13199	0.098114	-0.24811	0.09964	-0.43304	0.039978	-0.018768	0.046539	-0.11322	-0.56808	-0.52322	-0.00412	-0.012817
50.925	0.010529	-0.11124	-0.050964	0.014801	-0.010071	-0.021515	0.010529	0.00473	0.009766	-0.029297	-0.013885	0.00473	-0.005798	-0.032959	-0.061646	0.004883	-0.007019	0.13321	-0.32516	0.14923	0.00946	-0.2211	0.063934	-0.18982	0.010529	-0.055084	0.055084	0.21515	-0.21271	-0.70938	-0.002594	-0.006104
50.926	0.014343	-0.112	-0.063171	0.001221	-0.00351	-0.023041	0.010529	0.006256	0.013123	-0.009613	-0.070953	0.014496	-0.025787	-0.055542	-0.007935	0.008698	-0.011139	0.14877	-0.081635	-0.058594	0.030823	-0.19836	0.14389	-0.022278	0.071869	-0.063324	-0.009003	-0.64926	0.50903	-0.70465	-0.003052	-0.00824
50.927	0.009613	-0.11597	0.011749	-0.010834	-0.013885	-0.040894	0.010986	0.007629	0.020142	0.00473	-0.046539	0.019531	-0.05722	-0.05188	0.40848	0.006104	-0.011902	0.063477	-0.54275	-0.12329	0.050812	-0.13611	0.32242	-0.00473	0.069275	-0.045776	-0.034027	0.21698	0.36041	-0.05249	-0.003357	-0.012207
50.928	0.01236	-0.087738	0.023346	-0.007019	0.003967	-0.082397	0.016632	0.004578	0.009308	-0.008545	-0.088196	0.024872	-0.002899	0.017548	0.28214	0.002747	-0.005493	0.11978	-0.21591	-0.19577	0.094757	-0.14008	0.32028	0.23224	-0.07431	-0.034943	0.061951	0.16678	-0.67886	-0.38727	-0.005341	-0.012665
50.929	0.009308	-0.091858	0.033722	0.003052	0.005188	-0.084381	-0.003815	0.003662	0.007629	-0.03952	-0.12039	0.020905	0.072174	0.047913	0.16235	0.014343	0.021515	0.07019	0.95444	-0.1384	0.062866	-0.020599	0.21561	0.28839	-0.25543	-0.011444	0.11871	0.12634	-1.4839	-0.058136	-0.00824	-0.000153
50.93	0.01297	-0.097504	0.012665	0.006256	0.010681	-0.08316	0.00885	-0.001678	-0.002899	-0.037079	0.016174	0.021515	0.059509	0.028076	0.30716	0.022278	0.027771	0.1268	0.44235	0.024872	0.060272	0.083313	0.14374	0.24796	-0.17929	0.010681	0.001373	0.20004	-0.58609	1.1168	-0.003204	-0.006866
50.931	0.011597	-0.11139	-0.004883	0.020905	0.007935	-0.036621	0.00824	0.002594	-0.023041	-0.014191	0.13886	0.02655	-0.036774	0.025024	0.41718	0.011444	0.04303	0.1004	0.054779	0.2121	0.047913	0.12009	0.29724	0.085907	-0.1709	0.013123	-0.10727	0.10544	1.138	1.0574	-0.000916	-0.008545
50.932	0.005951	-0.11978	0.028534	0.031433	-0.007172	0.006409	0.031586	0.007477	-0.046082	0.000916	0.1738	0.024872	-0.062256	0.089264	-0.25574	0.009918	0.023041	0.039825	-0.23163	0.30975	-0.019836	0.14313	0.11383	0.16556	-0.14053	0.002747	0.046997	-0.051422	1.5416	1.2215	-0.006256	-0.008087
